<svg version="1.0" xmlns="http://www.w3.org/2000/svg"
 width="2000.000000pt" height="2000.000000pt" viewBox="0 0 2000.000000 2000.000000"
 preserveAspectRatio="xMidYMid meet">

<g transform="translate(0.000000,2000.000000) scale(0.100000,-0.100000)"
fill="#000000" stroke="none">
<path d="M10455 16219 c-1637 -102 -3191 -834 -4336 -2044 -1746 -1847 -2255
-4546 -1306 -6935 235 -591 589 -1182 1018 -1696 1000 -1200 2307 -1989 3784
-2283 767 -154 1516 -179 2234 -75 177 25 211 34 211 58 0 8 7 17 16 20 12 5
-4 22 -63 70 -118 96 -294 284 -367 394 -101 151 -165 306 -207 495 -30 134
-37 407 -15 546 15 94 15 106 1 128 -11 16 -14 34 -9 60 6 34 6 36 -17 30 -13
-4 -128 -12 -255 -19 -431 -22 -953 23 -1369 118 -1056 242 -1936 820 -2656
1743 -551 708 -857 1502 -930 2414 -15 193 -7 671 16 877 109 1007 450 1833
1053 2555 112 134 449 467 592 585 795 658 1647 1023 2602 1115 233 22 910 22
1123 0 142 -15 511 -78 620 -106 156 -40 434 -131 583 -190 185 -73 590 -277
721 -362 101 -66 372 -272 479 -364 48 -41 114 -89 147 -106 59 -32 62 -32
195 -31 116 1 148 5 223 28 321 97 539 318 623 631 29 108 27 341 -5 455 -33
123 -118 291 -191 377 -96 115 -295 274 -685 549 -198 140 -299 198 -565 328
-673 328 -1411 536 -2160 610 -354 35 -784 45 -1105 25z"/>
<path d="M15193 6652 c-100 -36 -171 -101 -216 -199 -17 -38 -22 -66 -22 -138
0 -82 3 -97 32 -156 41 -84 102 -140 201 -187 152 -73 293 -53 403 57 110 110
130 251 57 403 -71 150 -180 228 -326 235 -57 3 -91 -1 -129 -15z"/>
<path d="M14210 6096 c-206 -44 -346 -148 -430 -321 -51 -106 -70 -179 -76
-300 -7 -123 10 -216 60 -319 73 -152 170 -251 311 -320 244 -118 443 -121
635 -9 79 47 203 170 249 246 66 113 85 179 85 307 1 93 -3 129 -22 190 -66
210 -201 381 -363 458 -145 69 -319 95 -449 68z"/>
<path d="M12635 5430 c-121 -18 -257 -72 -382 -153 -217 -141 -378 -381 -423
-628 -18 -99 -13 -275 11 -391 28 -137 55 -206 124 -318 104 -166 244 -295
410 -375 146 -70 192 -79 405 -80 161 0 197 3 280 23 356 89 606 358 676 729
22 117 15 328 -14 424 -28 94 -89 243 -129 315 -42 77 -189 220 -299 293 -116
76 -308 148 -425 161 -105 11 -161 11 -234 0z"/>
</g>
</svg>
